<svg xmlns="http://www.w3.org/2000/svg" xmlns:xlink="http://www.w3.org/1999/xlink" preserveAspectRatio="none" viewBox="0 0 1856.17 1031.58"><defs><linearGradient id="a" x1="961.08" y1="24.75" x2="961.08" y2="1056.33" gradientUnits="userSpaceOnUse"><stop offset="0" stop-color="#fdd4c0"/><stop offset="0.05" stop-color="#f2cbb0"/><stop offset="0.15" stop-color="#d4b287"/><stop offset="0.26" stop-color="#a98f4c"/><stop offset="0.58" stop-color="#682d11"/><stop offset="1" stop-color="#1f1b0b"/></linearGradient><linearGradient id="b" x1="1872.64" y1="1029.41" x2="1872.64" y2="1034.92" xlink:href="#a"/><linearGradient id="c" x1="1194.73" y1="24.86" x2="1194.73" y2="44.76" xlink:href="#a"/><linearGradient id="d" x1="1194.91" y1="33.02" x2="1194.91" y2="40.38" xlink:href="#a"/><linearGradient id="e" x1="68.15" y1="1040.08" x2="68.15" y2="1047.51" xlink:href="#a"/><linearGradient id="f" x1="362.63" y1="6.75" x2="362.63" y2="9" xlink:href="#a"/><linearGradient id="g" x1="53.09" y1="1032.12" x2="53.09" y2="1040.34" xlink:href="#a"/><linearGradient id="h" x1="59.91" y1="50.29" x2="59.91" y2="1052" xlink:href="#a"/><linearGradient id="i" x1="73.23" y1="27.63" x2="73.23" y2="42.92" xlink:href="#a"/><linearGradient id="j" x1="64.15" y1="37.67" x2="64.15" y2="52.48" xlink:href="#a"/><linearGradient id="k" x1="41.31" y1="1031.89" x2="41.31" y2="1034.41" xlink:href="#a"/><linearGradient id="l" x1="1491.54" y1="6.25" x2="1491.54" y2="8.25" xlink:href="#a"/><linearGradient id="m" x1="1858.56" y1="31.2" x2="1858.56" y2="41.41" xlink:href="#a"/><linearGradient id="n" x1="1857.21" y1="27.71" x2="1857.21" y2="49.13" xlink:href="#a"/><linearGradient id="o" x1="1859.75" y1="42.99" x2="1859.75" y2="1054.29" xlink:href="#a"/><linearGradient id="p" x1="1858.1" y1="1034.25" x2="1858.1" y2="1046.18" xlink:href="#a"/><linearGradient id="q" x1="1857.52" y1="1033.75" x2="1857.52" y2="1045.68" xlink:href="#a"/><linearGradient id="r" x1="927.67" y1="1023.07" x2="927.67" y2="1025.93" xlink:href="#a"/><linearGradient id="s" x1="721.33" y1="24.94" x2="721.33" y2="44.83" xlink:href="#a"/><linearGradient id="t" x1="721.14" y1="33.09" x2="721.14" y2="40.45" xlink:href="#a"/></defs><title>mask</title><path d="M708,26.75l-630.5-.5C50,31.54,36.23,43.43,34.75,61.25L34.5,1022.5c1.82,15.31,14,26.48,43,31l84.67.92,1680.83.41c22.64-1.91,35.36-9.58,41.17-21.25l2.91-5.91.59-31.42V53.33c-3.54-14-18-22.86-43.09-26.75l-636.83.25" transform="translate(-33 -24.75)" style="fill:none;stroke-miterlimit:10;stroke-width:3px;stroke:url(#a)"/><path d="M1883.42,1032a32.22,32.22,0,0,0-4.7-.35l1.42-1.91c-2,2.13-5,2.87-7.9,3.08s-5.84,0-8.65.71a19.93,19.93,0,0,0,8.82.68c3.49-.46,7-1.83,10.42-1" transform="translate(-33 -24.75)" style="fill:#674a43;stroke-miterlimit:10;stroke:url(#b)"/><path d="M1205.81,25.43a5.61,5.61,0,0,1,.15,2c-.23,2.26.1,4.88,0,7.16a10.76,10.76,0,0,1-.92,4.89,8.35,8.35,0,0,1-4.54,3.39,21.34,21.34,0,0,1-6.79,1.38,11.67,11.67,0,0,1-7.37-1.85,6.57,6.57,0,0,1-2.7-6.87,6.67,6.67,0,0,1,3.59-3.92,16,16,0,0,1,5.23-1.31,13.43,13.43,0,0,1,6.73.45c.94.39,1.92,1.41,1.44,2.32a20.53,20.53,0,0,0-7.36-1.31,7.53,7.53,0,0,0-6.27,3.6c-1.2,2.24-.49,5.55,1.8,6.57a7.55,7.55,0,0,0,3,.44,19.39,19.39,0,0,0,6.31-.66,6.69,6.69,0,0,0,4.44-4.31,10,10,0,0,0,.23-2.45l.13-9.36C1203.88,25.45,1204.86,25.57,1205.81,25.43Z" transform="translate(-33 -24.75)" style="fill:#674a43;stroke-miterlimit:10;stroke:url(#c)"/><path d="M1198.85,36.27a2.37,2.37,0,0,0-1.39-1.85,4.44,4.44,0,0,0-1.3-.28,8.22,8.22,0,0,0-3,0,2.88,2.88,0,0,0-2.14,2,3.28,3.28,0,0,0,.41,2.26,1.66,1.66,0,0,0,.43.58,1.83,1.83,0,0,0,.8.25C1194.75,39.53,1199.32,39.74,1198.85,36.27Z" transform="translate(-33 -24.75)" style="fill:none;stroke-miterlimit:10;stroke-width:2px;stroke:url(#d)"/><path d="M59.91,1042.08c1.82-1.48,3.56-2.23,5-.5,3,2.79,6.06,3.67,9.33,2.75l-2.42,1.59,1.75,1.08C69.37,1047.14,64.57,1045.21,59.91,1042.08Z" transform="translate(-33 -24.75)" style="fill:#674a43;stroke-miterlimit:10;stroke:url(#e)"/><line x1="675" y1="8" x2="50.25" y2="7.75" style="fill:none;stroke-miterlimit:10;stroke-width:2px;stroke:url(#f)"/><path d="M44.08,1033.27a41.72,41.72,0,0,1,8.1,3.08,5.46,5.46,0,0,1,2.63,2.21A13.85,13.85,0,0,1,62,1033" transform="translate(-33 -24.75)" style="fill:none;stroke-miterlimit:10;stroke-width:1.75px;stroke:url(#g)"/><path d="M56.08,51.17c-8.93.38-15.38,2.14-15.08,7.66v963.75c.4,2.2,2.4,4.06,4.38,5.11s4.16,1.63,6.13,2.67a1.84,1.84,0,0,0,1.24.33c.75-.19,1-1.32,1.83-1.33a3.12,3.12,0,0,1,2.74-.45,7.82,7.82,0,0,1,2.44,1.32,12.38,12.38,0,0,1,3,2.77c.61.86,1,1.86,1.64,2.73a13.26,13.26,0,0,0,4.65,3.5,10,10,0,0,0,3,1.25c.94.16,1.91,0,2.86.17a4.7,4.7,0,0,1,3.26,1.87,3.38,3.38,0,0,1,.18,3.65c-.3.46-.71.83-1,1.28-.86,1.26-.72,2.93-.54,4.45" transform="translate(-33 -24.75)" style="fill:none;stroke-miterlimit:10;stroke-width:1.75px;stroke:url(#h)"/><path d="M79.65,27.66c-.13,2.28.24,4.57.08,6.84s-1,4.69-2.87,6A10,10,0,0,1,74,41.61c-2.29.63-4.75,1.2-7,.46.86-1.15,2.61-.91,4-1.26a8,8,0,0,0,2.59-1.37,6.9,6.9,0,0,0,2.49-2.6,7.33,7.33,0,0,0,.45-3l.06-6" transform="translate(-33 -24.75)" style="fill:#674a43;stroke-miterlimit:10;stroke:url(#i)"/><path d="M56.61,52c1.46-.8,3.56-.31,4.67-1.56a5.44,5.44,0,0,0,.89-2.4,11.65,11.65,0,0,1,4-5.88,34.32,34.32,0,0,1,6.1-3.82,4,4,0,0,0-2.55,0,16.1,16.1,0,0,0-7.95,5.09,18.25,18.25,0,0,0-3.37,5.7,1.72,1.72,0,0,1-.65,1,1.5,1.5,0,0,1-.63.15l-2.19.23" transform="translate(-33 -24.75)" style="fill:#674a43;stroke-miterlimit:10;stroke:url(#j)"/><path d="M43.92,1034.07a4.64,4.64,0,0,0-3-1.48,8.38,8.38,0,0,1,3.42,0" transform="translate(-33 -24.75)" style="fill:#674a43;stroke-miterlimit:10;stroke:url(#k)"/><line x1="1174.83" y1="7.25" x2="1808.25" y2="7.25" style="fill:none;stroke-miterlimit:10;stroke-width:2px;stroke:url(#l)"/><path d="M1853.42,31.92c3.59,2.94,6.58,5.8,7.08,8.33,1.56.59,2.58.78,3.08.58s.78-.72.59-1.91c-.42-2.56-3.2-4-5.25-5.63A6.09,6.09,0,0,0,1853.42,31.92Z" transform="translate(-33 -24.75)" style="fill:#674a43;stroke-miterlimit:10;stroke:url(#m)"/><path d="M1843.09,28a4.48,4.48,0,0,1,.93,2.86,1.07,1.07,0,0,1-.16.64,1.27,1.27,0,0,1-.56.35c-3.1,1.23-6.27,2.47-9.6,2.55-.57,0-1.35.2-1.32.77,0,.41.51.63.91.71a11.49,11.49,0,0,0,7-1.16,25.87,25.87,0,0,0,4.45-2.57c1.14,3.26,2.37,6.67,3.51,9.93a.66.66,0,0,0,.14.26.62.62,0,0,0,.47.09c5.72-.44,11.42.92,17,2.4l6.78,1.86,5.74,1.59a4.37,4.37,0,0,0,2.57.19,1.52,1.52,0,0,0,1-2,2.21,2.21,0,0,0-1.64-.77,197.22,197.22,0,0,1-28.8-6.79,2.32,2.32,0,0,1-.81-.38,2.15,2.15,0,0,1-.58-.89,71.86,71.86,0,0,1-3.59-9.77" transform="translate(-33 -24.75)" style="fill:#674a43;stroke-miterlimit:10;stroke:url(#n)"/><path d="M1861.42,43.17c-1,4.94,3.57,7.9,10.75,9.91,6.56.43,10.59,2.88,9.87,9.09l0,963.25a3.11,3.11,0,0,1-2.71,1,34.77,34.77,0,0,0-9.06.12,5.36,5.36,0,0,0-3.39,1.64c-1,1.24-.86,3-1.46,4.47-3.36.87-7,2-10.34,2.83a10.39,10.39,0,0,0-3.39,1.33,3.44,3.44,0,0,0-1.59,3.1,5,5,0,0,0,1,2.15c-2.2.69-4.43,1.3-6.67,1.84a15.61,15.61,0,0,1-4.06.58,13.53,13.53,0,0,0-2.38,0c-.37.06-.82.38-.62.7q3.82,0,7.66-.12a7.65,7.65,0,0,1,0,2.78l-.9,6.36" transform="translate(-33 -24.75)" style="fill:none;stroke-miterlimit:10;stroke-width:1.75px;stroke:url(#o)"/><path d="M1860.51,1034.73c2.36.73,4.91.37,7.38.18.73-.06,1.69.07,1.84.79a1.44,1.44,0,0,1-.48,1.17c-2.39,2.72-6.11,3.81-9,5.92-1.63,1.17-3.19,2.72-5.19,2.88a8,8,0,0,1-1.62-.09l-5-.61a13.29,13.29,0,0,1,3.49-.59c0-.53.13-1.31-.35-1.54l.33.75c0-.16.35-.23.37-.38a.51.51,0,0,0,.28-.69,4.25,4.25,0,0,0,2,1.66c1.35.57,2.84-.32,4-1.15q3.69-2.51,7.63-4.64a2.63,2.63,0,0,0,1-.73.93.93,0,0,0,0-1.14,1.4,1.4,0,0,0-1.07-.31l-7.42,0c-.26,0-.47-.4-.67-.58" transform="translate(-33 -24.75)" style="fill:#674a43;stroke-miterlimit:10;stroke:url(#p)"/><path d="M1859.92,1034.23c2.37.73,4.92.37,7.39.18.73-.06,1.69.07,1.84.79a1.45,1.45,0,0,1-.49,1.17c-2.39,2.72-6.1,3.81-9,5.92-1.64,1.17-3.19,2.72-5.19,2.88a8.11,8.11,0,0,1-1.63-.09l-5-.61a13.36,13.36,0,0,1,3.49-.59c0-.53.14-1.31-.34-1.54l.33.75c0-.16.34-.23.37-.38a.51.51,0,0,0,.28-.69,4.21,4.21,0,0,0,2,1.66c1.35.57,2.83-.32,4-1.15q3.7-2.51,7.64-4.64a2.71,2.71,0,0,0,1-.73,1,1,0,0,0,0-1.14,1.41,1.41,0,0,0-1.07-.31l-7.42,0c-.26,0-.48-.4-.67-.58" transform="translate(-33 -24.75)" style="fill:#674a43;stroke-miterlimit:10;stroke:url(#q)"/><line x1="49" y1="1023.92" x2="1806.33" y2="1025.08" style="fill:none;stroke-miterlimit:10;stroke-width:1.7000000000000002px;stroke:url(#r)"/><path d="M710,25.5a5.61,5.61,0,0,0-.15,2c.24,2.26-.1,4.89,0,7.16a10.51,10.51,0,0,0,.94,4.89A8.57,8.57,0,0,0,715.4,43a22.23,22.23,0,0,0,6.94,1.37,12.23,12.23,0,0,0,7.55-1.84c2.15-1.53,3.52-4.35,2.75-6.88A6.71,6.71,0,0,0,729,31.68a16.86,16.86,0,0,0-5.35-1.31,13.9,13.9,0,0,0-6.88.46c-1,.39-2,1.4-1.48,2.31a21.44,21.44,0,0,1,7.53-1.31,7.76,7.76,0,0,1,6.42,3.6c1.23,2.25.5,5.55-1.85,6.57a7.66,7.66,0,0,1-3.05.44,19.7,19.7,0,0,1-6.46-.66,6.75,6.75,0,0,1-4.54-4.3,10.12,10.12,0,0,1-.24-2.46l-.13-9.35C712,25.52,711,25.64,710,25.5Z" transform="translate(-33 -24.75)" style="fill:#674a43;stroke-miterlimit:10;stroke:url(#s)"/><path d="M717.11,36.34a2.38,2.38,0,0,1,1.42-1.85,4.78,4.78,0,0,1,1.34-.28,8.55,8.55,0,0,1,3.07,0,3,3,0,0,1,2.2,2,3.27,3.27,0,0,1-.42,2.27,1.65,1.65,0,0,1-.44.57,1.83,1.83,0,0,1-.82.25C721.31,39.6,716.63,39.81,717.11,36.34Z" transform="translate(-33 -24.75)" style="fill:none;stroke-miterlimit:10;stroke-width:2px;stroke:url(#t)"/></svg>